<svg width="130" height="130" viewBox="0 0 130 130" fill="none" xmlns="http://www.w3.org/2000/svg">
<g clip-path="url(#clip0_314_16)">
<g clip-path="url(#clip1_314_16)">
<g clip-path="url(#clip2_314_16)">
<path d="M0.0605469 65C0.0605469 29.117 29.1349 0.0280457 65 0.0280457C100.865 0.0280457 129.939 29.117 129.939 65C129.939 100.883 100.865 129.972 65 129.972C29.1349 129.972 0.0605469 100.883 0.0605469 65ZM65 128.08C99.8207 128.08 128.048 99.8381 128.048 65C128.048 30.1619 99.8207 1.92006 65 1.92006C30.1793 1.92006 1.95161 30.1619 1.95161 65C1.95161 99.8381 30.1793 128.08 65 128.08Z" fill="white"/>
<path d="M64.9999 127.373C99.4303 127.373 127.342 99.4476 127.342 64.9999C127.342 30.5523 99.4303 2.62692 64.9999 2.62692C30.5695 2.62692 2.65808 30.5523 2.65808 64.9999C2.65808 99.4476 30.5695 127.373 64.9999 127.373Z" fill="white"/>
<g clip-path="url(#clip3_314_16)">
<g clip-path="url(#clip4_314_16)">
<g clip-path="url(#clip5_314_16)">
<g clip-path="url(#clip6_314_16)">
<g clip-path="url(#clip7_314_16)">
<g clip-path="url(#clip8_314_16)">
<g clip-path="url(#clip9_314_16)">
<path d="M24.7461 72.6426H35.3349V74.474L27.4339 86.2968H35.6593V88.2672H24.6302V86.3895L32.5082 74.6131H24.7461V72.6426ZM43.4214 88.4759C41.6913 88.4759 40.332 87.9118 39.3434 86.7836C38.3548 85.6554 37.8605 84.2258 37.8605 82.4949C37.8605 80.7331 38.3702 79.268 39.3897 78.0996C40.4092 76.9344 41.7531 76.3517 43.4214 76.3517C45.2132 76.3517 46.5957 76.9189 47.5688 78.0533C48.542 79.1907 49.0286 80.6404 49.0286 82.4022C49.0286 84.164 48.5296 85.6168 47.5318 86.7604C46.537 87.904 45.1669 88.4759 43.4214 88.4759ZM43.3982 78.2758C42.3941 78.2758 41.6141 78.673 41.058 79.4674C40.5019 80.2648 40.2239 81.2508 40.2239 82.4254C40.2239 83.5845 40.5096 84.5612 41.0812 85.3556C41.6527 86.153 42.4328 86.5518 43.4214 86.5518C44.4718 86.5518 45.2704 86.1654 45.8172 85.3927C46.3671 84.6199 46.642 83.6386 46.642 82.4486C46.642 81.2276 46.3794 80.2262 45.8542 79.4442C45.3291 78.6653 44.5104 78.2758 43.3982 78.2758ZM51.5773 76.514H53.848V78.5308C54.5431 77.0781 55.7634 76.3517 57.5089 76.3517C58.6674 76.3517 59.5865 76.7072 60.2662 77.4181C60.9458 78.129 61.2857 79.0949 61.2857 80.3158V88.2672H59.015V80.849C59.015 80.0299 58.8095 79.404 58.3987 78.9713C57.9909 78.5385 57.4471 78.3222 56.7675 78.3222C55.9642 78.3222 55.2768 78.6344 54.7053 79.2587C54.1338 79.8862 53.848 80.764 53.848 81.8922V88.2672H51.5773V76.514ZM65.9614 81.5445H71.6382V81.1272C71.6073 80.2463 71.3678 79.5462 70.9199 79.0269C70.4719 78.5107 69.8309 78.2526 68.9967 78.2526C68.2244 78.2526 67.5602 78.5339 67.0041 79.0965C66.448 79.6621 66.1005 80.4781 65.9614 81.5445ZM73.0979 85.6013V87.6413C72.2329 88.1359 71.0898 88.3831 69.6687 88.3831C67.846 88.3831 66.394 87.8345 65.3127 86.7372C64.2314 85.6399 63.6908 84.2027 63.6908 82.4254C63.6908 80.5399 64.1851 79.0594 65.1736 77.9837C66.1623 76.9112 67.4212 76.3749 68.9504 76.3749C70.4488 76.3749 71.6382 76.8416 72.5186 77.7751C73.3991 78.7116 73.8393 80.0608 73.8393 81.8226C73.8393 82.3017 73.793 82.804 73.7003 83.3295H65.9846C66.1391 84.3495 66.5716 85.1299 67.2821 85.6708C67.9927 86.2118 68.8886 86.4822 69.9699 86.4822C71.2211 86.4822 72.2638 86.1886 73.0979 85.6013ZM78.8905 88.2672H76.5966V71.8776H78.8905V88.2672ZM84.5672 88.2672H82.2733V76.514H84.5672V88.2672ZM82.3985 73.9269C82.1297 73.658 81.9953 73.3226 81.9953 72.9208C81.9953 72.519 82.1297 72.179 82.3985 71.9008C82.6703 71.6226 83.0071 71.4835 83.4087 71.4835C83.8103 71.4835 84.1501 71.6226 84.4282 71.9008C84.7062 72.179 84.8452 72.519 84.8452 72.9208C84.8452 73.3072 84.7062 73.6394 84.4282 73.9176C84.1501 74.1958 83.8103 74.3349 83.4087 74.3349C83.0071 74.3349 82.6703 74.1989 82.3985 73.9269ZM93.9048 71.8544V73.8481C93.5465 73.6935 93.1742 73.6163 92.788 73.6163C91.6604 73.6163 91.0966 74.2885 91.0966 75.6331V76.514H93.5804V78.2758H91.0966V88.2672H88.8305V78.2758H86.9537V76.514H88.8305V75.6099C88.8305 74.389 89.158 73.4277 89.813 72.7261C90.471 72.0213 91.3947 71.669 92.5841 71.669C93.0166 71.669 93.4569 71.7308 93.9048 71.8544ZM98.8355 88.0122L94.1551 76.514H96.6806L98.1404 80.339L99.9708 85.2999C100.11 84.8363 100.666 83.1827 101.639 80.339L102.96 76.514H105.369L101.129 87.9427C100.002 90.9563 98.2794 92.4631 95.9623 92.4631C95.5453 92.4631 95.19 92.4245 94.8965 92.3472V90.4C95.1437 90.4618 95.4063 90.4927 95.6843 90.4927C97.1826 90.4927 98.233 89.6659 98.8355 88.0122Z" fill="#61777F"/>
</g>
</g>
</g>
</g>
<g clip-path="url(#clip10_314_16)">
<g clip-path="url(#clip11_314_16)">
<path d="M64.9999 37.5368C62.1341 37.5368 59.3327 38.3871 56.9499 39.98C54.5671 41.5729 52.7099 43.8371 51.6132 46.486C50.5165 49.135 50.2296 52.0498 50.7887 54.862C51.3478 57.6741 52.7278 60.2572 54.7542 62.2846C56.7806 64.312 59.3624 65.6927 62.1731 66.2521C64.9839 66.8115 67.8972 66.5244 70.5449 65.4271C73.1925 64.3299 75.4555 62.4718 77.0476 60.0878C78.6398 57.7038 79.4896 54.901 79.4896 52.0337C79.4853 48.1903 77.9573 44.5054 75.2409 41.7877C72.5245 39.0699 68.8415 37.5412 64.9999 37.5368ZM56.8841 41.1416C56.948 41.4073 56.9949 41.6769 57.0245 41.9487C57.0394 42.0676 57.053 42.1734 57.0671 42.2558C57.1599 42.6328 57.1604 43.0266 57.0686 43.4038C56.9362 43.7882 56.6362 44.0679 56.0655 44.3391C55.9708 44.3839 55.8766 44.4276 55.7834 44.4707C55.1565 44.7606 54.5085 45.0603 53.9744 45.6981C53.2293 46.5879 52.8642 46.717 52.7054 46.7059C52.6737 46.7038 52.6428 46.6947 52.6151 46.6792C52.5873 46.6637 52.5633 46.6422 52.5449 46.6162C53.4929 44.4461 54.9881 42.5596 56.8841 41.1416ZM51.5497 50.148C52.0545 50.1698 53.4553 50.3045 53.5058 51.1327C53.4513 51.7904 53.4598 52.4518 53.5309 53.1079C53.6389 54.0518 54.3152 54.6316 54.9117 55.1433C55.4535 55.6081 55.9215 56.0093 55.9656 56.6025C55.9603 56.9443 55.8849 57.2814 55.7442 57.5929C55.653 57.828 55.5784 58.0692 55.521 58.3148L55.5106 58.3646C55.3939 58.7847 55.3634 59.2242 55.4209 59.6564C55.5128 60.1674 55.4555 60.6053 55.2719 60.7996C55.2002 60.8595 55.1161 60.9028 55.0257 60.9264C54.9353 60.95 54.8408 60.9534 54.7489 60.9362C53.4726 59.4734 52.5262 57.7526 51.9741 55.891C51.422 54.0294 51.2773 52.0706 51.5497 50.148ZM59.8337 64.6008C61.0198 64.0995 63.5677 63.4372 65.8421 65.5958C65.5632 65.6131 65.2829 65.6246 64.9999 65.6246C63.2274 65.6258 61.4719 65.2779 59.8337 64.6008ZM66.9818 65.4785C66.975 65.4694 66.9698 65.4599 66.9624 65.4511C63.6368 61.6683 59.4511 63.7416 58.7814 64.1106C57.5712 63.4843 56.4615 62.6804 55.4893 61.7254C55.6551 61.6558 55.8048 61.5528 55.9292 61.4228C56.4825 60.8386 56.3815 59.8807 56.3122 59.496C56.2794 59.179 56.308 58.8586 56.3965 58.5524L56.4071 58.5023C56.4563 58.298 56.5193 58.0973 56.5957 57.9016C56.7841 57.4711 56.8773 57.0049 56.8687 56.535C56.7967 55.5665 56.1085 54.9759 55.501 54.4552C54.9629 53.9938 54.4979 53.5951 54.4306 53.005C54.3652 52.3977 54.3586 51.7855 54.4107 51.1768C54.412 51.16 54.4124 51.143 54.4118 51.1261C54.3776 50.042 53.3681 49.3489 51.7034 49.2503C51.8291 48.6505 51.9956 48.06 52.2017 47.4829C52.3468 47.5609 52.5078 47.6049 52.6724 47.6115C52.6867 47.6122 52.7005 47.6124 52.7145 47.6122C53.4564 47.6122 54.1472 46.9025 54.6686 46.2801C55.0725 45.7978 55.5778 45.564 56.1633 45.2934C56.2597 45.2487 56.3568 45.2037 56.4542 45.1575C56.9511 44.9214 57.6442 44.5135 57.9249 43.6989C58.0705 43.1792 58.0826 42.6311 57.96 42.1054C57.9478 42.0331 57.9362 41.9398 57.9231 41.8354C57.8921 41.417 57.7996 41.0056 57.6485 40.6143C59.3687 39.5003 61.32 38.7931 63.3542 38.5462C63.374 38.686 63.3816 38.8273 63.3769 38.9684L63.3766 39.0495C63.3791 39.4853 63.366 39.7832 63.1679 39.9469C62.989 40.0728 62.7918 40.1702 62.5831 40.2358C62.4606 40.2822 62.3386 40.3288 62.2218 40.3825C61.6373 40.6176 61.1003 40.9567 60.6367 41.3833C60.2752 41.7529 60.1708 42.117 60.3268 42.466C60.3735 42.5719 60.459 42.6558 60.5657 42.7006C60.6723 42.7455 60.7921 42.7477 60.9004 42.707C61.0087 42.6662 61.0972 42.5856 61.148 42.4815C61.1987 42.3775 61.2076 42.258 61.1731 42.1475C61.2058 42.1006 61.2429 42.0569 61.284 42.0171C61.6718 41.6724 62.1167 41.398 62.5987 41.2061C62.6974 41.1611 62.8009 41.1221 62.9046 41.0827C63.2068 40.9848 63.4907 40.8371 63.7443 40.6457C64.289 40.1959 64.2852 39.5302 64.2822 39.0434L64.2825 38.975C64.287 38.8043 64.279 38.6335 64.2587 38.464C64.5041 38.4506 64.7511 38.4429 64.9999 38.4429C66.0292 38.4436 67.0551 38.5616 68.0577 38.7944C68.0781 38.8681 68.1174 38.9351 68.1718 38.9888C68.2129 39.0319 68.2625 39.066 68.3175 39.089C68.3724 39.112 68.4315 39.1234 68.491 39.1224C68.55 39.1228 68.6085 39.1113 68.663 39.0886C68.7175 39.0659 68.7669 39.0325 68.8082 38.9904C70.9997 39.6361 72.9939 40.8223 74.6076 42.4401C76.2214 44.058 77.4031 46.0555 78.044 48.2494C77.9702 48.238 77.8946 48.2451 77.8242 48.2701C77.7538 48.2951 77.6906 48.3372 77.6405 48.3927C77.5903 48.4481 77.5547 48.5151 77.5368 48.5877C77.5188 48.6603 77.5192 48.7362 77.5378 48.8086C77.5565 48.881 77.5928 48.9477 77.6435 49.0026C77.6942 49.0575 77.7577 49.099 77.8284 49.1233C77.8991 49.1477 77.9747 49.154 78.0484 49.1419C78.1222 49.1298 78.1917 49.0996 78.2509 49.054C78.6625 50.8785 78.6929 52.7684 78.3401 54.6053C77.9874 56.4421 77.2592 58.1862 76.2012 59.7283C75.1432 61.2703 73.7781 62.5771 72.1917 63.5666C70.6052 64.5561 68.8315 65.207 66.9818 65.4785Z" fill="#61777F"/>
<path d="M65.9893 42.7535C66.0236 42.753 66.0577 42.7491 66.0912 42.7419C66.204 42.7159 66.3027 42.6477 66.3669 42.5513C66.4311 42.4548 66.456 42.3374 66.4365 42.2232C66.4169 42.109 66.3545 42.0066 66.2618 41.937C66.1692 41.8674 66.0535 41.8359 65.9384 41.8489C65.8233 41.862 65.7176 41.9186 65.6429 42.0072C65.5682 42.0957 65.5302 42.2095 65.5367 42.3252C65.5432 42.4409 65.5937 42.5498 65.6779 42.6294C65.762 42.709 65.8735 42.7534 65.9893 42.7535Z" fill="#61777F"/>
<path d="M68.0948 40.4586H68.1016C68.2223 40.4577 68.3377 40.409 68.4225 40.3232C68.5074 40.2373 68.5548 40.1213 68.5544 40.0005C68.5539 39.8798 68.5056 39.7641 68.4201 39.6789C68.3346 39.5937 68.2189 39.5458 68.0982 39.5458C67.9775 39.5458 67.8617 39.5937 67.7762 39.6789C67.6907 39.7641 67.6424 39.8798 67.642 40.0005C67.6415 40.1213 67.6889 40.2373 67.7738 40.3232C67.8587 40.409 67.9741 40.4577 68.0948 40.4586Z" fill="#61777F"/>
<path d="M67.384 42.6447H67.3998C67.5167 42.6426 67.6281 42.5944 67.7097 42.5106C67.7912 42.4268 67.8364 42.3141 67.8354 42.1971C67.8343 42.0801 67.7872 41.9683 67.7041 41.8859C67.621 41.8035 67.5088 41.7573 67.3919 41.7573C67.2749 41.7573 67.1627 41.8035 67.0797 41.8859C66.9966 41.9683 66.9494 42.0801 66.9484 42.1971C66.9473 42.3141 66.9925 42.4268 67.0741 42.5106C67.1557 42.5944 67.267 42.6426 67.384 42.6447Z" fill="#61777F"/>
<path d="M67.8549 41.408C67.8553 41.4976 67.8823 41.585 67.9324 41.6593C67.9826 41.7335 68.0536 41.7912 68.1365 41.8251C68.2194 41.859 68.3105 41.8675 68.3982 41.8496C68.486 41.8317 68.5664 41.7881 68.6294 41.7244C68.6924 41.6608 68.7352 41.5798 68.7522 41.4919C68.7692 41.4039 68.7598 41.3128 68.7251 41.2302C68.6904 41.1476 68.6321 41.0772 68.5573 41.0278C68.4826 40.9784 68.395 40.9522 68.3054 40.9527C68.2459 40.953 68.1871 40.965 68.1323 40.988C68.0775 41.0111 68.0277 41.0447 67.9859 41.087C67.944 41.1292 67.9109 41.1793 67.8885 41.2344C67.866 41.2895 67.8546 41.3485 67.8549 41.408Z" fill="#61777F"/>
<path d="M64.6286 43.4534C64.6918 43.517 64.7725 43.5604 64.8603 43.5781C64.9481 43.5958 65.0393 43.5871 65.1222 43.5531C65.1773 43.5298 65.2273 43.4959 65.2693 43.4534C65.3116 43.4111 65.3454 43.3611 65.369 43.3062C65.3915 43.2516 65.403 43.1931 65.4029 43.134C65.4023 43.0134 65.3543 42.8979 65.2693 42.8124C65.2168 42.7599 65.1521 42.7213 65.0809 42.7C65.0098 42.6786 64.9346 42.6752 64.8618 42.69C64.8323 42.6948 64.8034 42.7031 64.7758 42.7147C64.7483 42.7256 64.7224 42.7401 64.6988 42.758C64.6736 42.7736 64.65 42.7918 64.6286 42.8124C64.5443 42.8981 64.4971 43.0137 64.4973 43.134C64.4972 43.1931 64.5087 43.2516 64.5313 43.3062C64.5532 43.3614 64.5864 43.4116 64.6286 43.4534Z" fill="#61777F"/>
<path d="M75.3186 56.2213C75.2188 56.2787 75.1445 56.3719 75.1109 56.482C75.0773 56.5922 75.0869 56.711 75.1377 56.8143C75.0974 57.1417 74.9698 57.4522 74.7682 57.7131C74.4247 58.2314 74.0639 58.4878 73.9468 58.5098C73.8359 58.5305 73.7366 58.592 73.6686 58.6821C73.6006 58.7722 73.5687 58.8845 73.5791 58.997C73.5895 59.1094 73.6415 59.2139 73.725 59.29C73.8084 59.3661 73.9173 59.4082 74.0301 59.4081C74.0585 59.4081 74.0867 59.4055 74.1146 59.4002C74.6391 59.301 75.1861 58.7225 75.5232 58.2137C75.7069 57.9365 76.2794 56.9853 75.9367 56.3887C75.9071 56.3371 75.8676 56.2918 75.8205 56.2555C75.7735 56.2191 75.7197 56.1924 75.6623 56.1769C75.6049 56.1613 75.545 56.1572 75.486 56.1649C75.427 56.1725 75.3701 56.1917 75.3186 56.2213Z" fill="#61777F"/>
<path d="M61.4998 48.9914C61.5656 48.9916 61.6306 48.977 61.69 48.9486V48.9509C61.7928 48.9044 61.8748 48.8216 61.9203 48.7183C61.9658 48.615 61.9715 48.4985 61.9363 48.3912C61.9011 48.284 61.8276 48.1935 61.7298 48.1372C61.6319 48.081 61.5168 48.0628 61.4065 48.0864C61.2961 48.1099 61.1983 48.1734 61.132 48.2647C61.0656 48.356 61.0353 48.4686 61.0469 48.5809C61.0584 48.6931 61.1111 48.7972 61.1947 48.873C61.2783 48.9488 61.387 48.991 61.4998 48.9914Z" fill="#61777F"/>
<path d="M60.0803 49.0053C60.0184 49.0692 59.9766 49.1499 59.9602 49.2374C59.9438 49.3249 59.9534 49.4153 59.9879 49.4973C60.0224 49.5794 60.0802 49.6495 60.1542 49.6989C60.2282 49.7484 60.3151 49.775 60.404 49.7754C60.4648 49.7749 60.5248 49.7625 60.5808 49.7388C60.6367 49.7151 60.6874 49.6806 60.7301 49.6372C60.7715 49.5945 60.8042 49.5441 60.8262 49.4888C60.8482 49.4335 60.8591 49.3744 60.8582 49.3148C60.8574 49.2553 60.8448 49.1965 60.8213 49.1419C60.7977 49.0872 60.7637 49.0377 60.721 48.9962C60.6783 48.9547 60.6279 48.922 60.5726 48.9C60.5173 48.878 60.4583 48.8671 60.3988 48.868C60.3393 48.8688 60.2805 48.8814 60.2259 48.9049C60.1712 48.9285 60.1218 48.9626 60.0803 49.0053Z" fill="#61777F"/>
<path d="M59.9353 52.924C59.9048 52.8397 59.8501 52.7665 59.778 52.7134C59.7059 52.6603 59.6197 52.6298 59.5303 52.6257C59.4409 52.6216 59.3523 52.6441 59.2757 52.6904C59.1991 52.7368 59.1379 52.8047 59.0999 52.8858C59.0619 52.9669 59.0488 53.0575 59.0623 53.146C59.0757 53.2345 59.1151 53.3171 59.1754 53.3832C59.2357 53.4494 59.3143 53.4962 59.4012 53.5176C59.4881 53.5391 59.5794 53.5343 59.6636 53.5038C59.7195 53.4836 59.7709 53.4526 59.8148 53.4125C59.8587 53.3724 59.8943 53.324 59.9195 53.2702C59.9447 53.2164 59.9591 53.1581 59.9618 53.0987C59.9645 53.0392 59.9555 52.9799 59.9353 52.924Z" fill="#61777F"/>
<path d="M65.1583 56.4123C65.2684 56.3844 65.3636 56.3155 65.4246 56.2198C65.4855 56.124 65.5076 56.0085 65.4863 55.897C65.465 55.7855 65.4019 55.6863 65.3099 55.6197C65.218 55.5532 65.1041 55.5243 64.9915 55.539C64.879 55.5537 64.7763 55.6108 64.7045 55.6987C64.6327 55.7867 64.5971 55.8987 64.6051 56.012C64.6131 56.1253 64.6641 56.2312 64.7475 56.3081C64.831 56.385 64.9407 56.4272 65.0542 56.4259C65.0894 56.4258 65.1244 56.4213 65.1583 56.4123Z" fill="#61777F"/>
<path d="M62.8038 48.6677H62.8378C62.961 48.6633 63.0775 48.6106 63.1622 48.5211C63.247 48.4316 63.2932 48.3124 63.291 48.1891C63.2888 48.0658 63.2382 47.9483 63.1503 47.8619C63.0624 47.7755 62.9441 47.7271 62.8208 47.7271C62.6976 47.7271 62.5793 47.7755 62.4913 47.8619C62.4034 47.9483 62.3529 48.0658 62.3507 48.1891C62.3484 48.3124 62.3947 48.4316 62.4794 48.5211C62.5642 48.6106 62.6807 48.6633 62.8038 48.6677Z" fill="#61777F"/>
<path d="M64.3638 54.5798C64.3085 54.558 64.2495 54.5473 64.19 54.5484C64.1306 54.5495 64.072 54.5623 64.0175 54.5861C63.9631 54.6098 63.9138 54.6441 63.8726 54.687C63.8314 54.7298 63.7991 54.7804 63.7774 54.8357C63.7342 54.9478 63.7369 55.0724 63.7847 55.1826C63.8326 55.2928 63.9219 55.3798 64.0332 55.4247V55.4224C64.0857 55.4438 64.1419 55.4545 64.1985 55.4541C64.3043 55.4547 64.4069 55.4182 64.4885 55.3509C64.5701 55.2836 64.6256 55.1898 64.6452 55.0858C64.6649 54.9819 64.6475 54.8743 64.5961 54.7818C64.5446 54.6894 64.4625 54.6179 64.3638 54.5798Z" fill="#61777F"/>
<path d="M63.9675 45.4805C64.0062 45.3996 64.0201 45.309 64.0074 45.2202C63.9947 45.1314 63.9559 45.0484 63.896 44.9817C63.8361 44.9149 63.7578 44.8674 63.671 44.8452C63.5841 44.823 63.4926 44.8271 63.4081 44.8569C63.3235 44.8867 63.2497 44.9409 63.196 45.0127C63.1422 45.0845 63.1109 45.1706 63.1061 45.2602C63.1013 45.3497 63.1231 45.4387 63.1689 45.5159C63.2146 45.593 63.2822 45.6549 63.363 45.6936C63.4238 45.7227 63.4903 45.7382 63.5577 45.7389C63.6434 45.7389 63.7274 45.7146 63.7999 45.6688C63.8724 45.6231 63.9305 45.5578 63.9675 45.4805Z" fill="#61777F"/>
<path d="M62.8151 54.4167C62.6999 54.4294 62.594 54.4857 62.5191 54.5742C62.4441 54.6626 62.4059 54.7764 62.4123 54.8922C62.4187 55.0079 62.4692 55.1168 62.5534 55.1965C62.6375 55.2762 62.749 55.3205 62.8649 55.3205C62.8808 55.3208 62.8967 55.3201 62.9125 55.3182C62.9725 55.313 63.031 55.2958 63.0843 55.2676C63.1377 55.2395 63.1849 55.201 63.2232 55.1544C63.2614 55.1078 63.2901 55.054 63.3073 54.9962C63.3246 54.9384 63.3301 54.8777 63.3236 54.8177C63.3172 54.7578 63.2988 54.6997 63.2696 54.6469C63.2404 54.5941 63.201 54.5477 63.1536 54.5103C63.1062 54.473 63.0519 54.4454 62.9938 54.4294C62.9357 54.4133 62.8749 54.409 62.8151 54.4167Z" fill="#61777F"/>
<path d="M61.6967 54.2966C61.5845 54.2546 61.4601 54.2589 61.351 54.3085C61.2419 54.3582 61.157 54.4492 61.115 54.5615C61.073 54.6738 61.0773 54.7983 61.1269 54.9074C61.1766 55.0166 61.2675 55.1015 61.3798 55.1436C61.4303 55.1631 61.4841 55.1731 61.5383 55.173C61.6442 55.173 61.7468 55.1357 61.8281 55.0677C61.9094 54.9997 61.9643 54.9053 61.9832 54.801C62.002 54.6967 61.9837 54.589 61.9313 54.4969C61.879 54.4047 61.796 54.3338 61.6967 54.2966Z" fill="#61777F"/>
<path d="M72.6409 51.4086C72.6576 51.4081 72.6742 51.4066 72.6907 51.404C72.7654 51.3959 72.8369 51.3693 72.8988 51.3265C72.9606 51.2838 73.0108 51.2263 73.0448 51.1593C73.0789 51.0923 73.0957 51.0178 73.0938 50.9427C73.0918 50.8675 73.0712 50.7941 73.0338 50.7289C72.9963 50.6637 72.9432 50.6089 72.8793 50.5694C72.8153 50.5299 72.7426 50.507 72.6676 50.5027C72.5925 50.4984 72.5176 50.5129 72.4496 50.5449C72.3816 50.5768 72.3226 50.6253 72.278 50.6857C72.2533 50.7395 72.2281 50.7927 72.2026 50.8452C72.1851 50.912 72.1832 50.982 72.197 51.0496C72.2109 51.1173 72.2401 51.1808 72.2826 51.2353C72.325 51.2898 72.3793 51.3338 72.4415 51.3638C72.5037 51.3939 72.5719 51.4092 72.6409 51.4086Z" fill="#61777F"/>
<path d="M73.3813 48.9486C73.4314 48.8742 73.4583 48.7867 73.4588 48.6969C73.4592 48.6072 73.433 48.5194 73.3836 48.4446C73.3341 48.3697 73.2636 48.3112 73.181 48.2764C73.0983 48.2417 73.0072 48.2322 72.9192 48.2491C72.907 48.5352 72.8715 48.8197 72.813 49.0999C72.9097 49.1493 73.0212 49.1612 73.1261 49.1332C73.231 49.1053 73.3219 49.0395 73.3813 48.9486Z" fill="#61777F"/>
<path d="M64.5743 44.8646C64.6652 44.8639 64.7537 44.8358 64.8284 44.7839C64.8576 44.7556 64.889 44.7296 64.9189 44.7019C64.9762 44.6337 65.012 44.55 65.0219 44.4615C65.0318 44.3729 65.0153 44.2834 64.9744 44.2042C64.9336 44.125 64.8703 44.0597 64.7924 44.0164C64.7146 43.9731 64.6257 43.9538 64.5369 43.9609C64.4481 43.968 64.3635 44.0013 64.2935 44.0564C64.2235 44.1115 64.1714 44.1862 64.1437 44.2708C64.116 44.3555 64.114 44.4465 64.1378 44.5324C64.1617 44.6182 64.2104 44.6951 64.2778 44.7534C64.3598 44.8254 64.4652 44.8649 64.5743 44.8646Z" fill="#61777F"/>
<path d="M71.4932 52.9761C71.4706 53.0311 71.4592 53.09 71.4595 53.1494C71.4598 53.2089 71.4719 53.2677 71.495 53.3224C71.5182 53.3772 71.552 53.4268 71.5944 53.4684C71.6368 53.5101 71.687 53.5429 71.7422 53.565C71.7972 53.5873 71.8561 53.5986 71.9154 53.5981C71.9748 53.5977 72.0334 53.5855 72.0881 53.5624C72.1428 53.5393 72.1923 53.5056 72.234 53.4633C72.2756 53.421 72.3085 53.3709 72.3308 53.3158C72.3531 53.2608 72.3644 53.2019 72.3639 53.1425C72.3635 53.0832 72.3514 53.0244 72.3282 52.9698C72.3051 52.9151 72.2714 52.8655 72.2292 52.8238C72.1869 52.7821 72.1368 52.7492 72.0818 52.7269C72.0268 52.7044 71.9679 52.6929 71.9085 52.6933C71.8491 52.6936 71.7903 52.7057 71.7356 52.7289C71.6809 52.752 71.6313 52.7858 71.5897 52.8282C71.5481 52.8706 71.5153 52.9209 71.4932 52.9761Z" fill="#61777F"/>
<path d="M59.4622 50.8468C59.5164 50.8716 59.5749 50.8854 59.6345 50.8873C59.694 50.8892 59.7534 50.8792 59.809 50.8579C59.8647 50.8366 59.9155 50.8044 59.9586 50.7633C60.0017 50.7221 60.0361 50.6727 60.0599 50.618C60.0964 50.5363 60.1079 50.4455 60.0928 50.3572C60.0777 50.2689 60.0369 50.1871 59.9753 50.122C59.9138 50.057 59.8343 50.0117 59.7471 49.9918C59.6598 49.9719 59.5686 49.9784 59.485 50.0104C59.4013 50.0424 59.3291 50.0985 59.2774 50.1716C59.2256 50.2447 59.1967 50.3315 59.1943 50.421C59.1918 50.5105 59.216 50.5988 59.2637 50.6746C59.3114 50.7504 59.3804 50.8103 59.4622 50.8468Z" fill="#61777F"/>
<path d="M59.3467 52.1968C59.4623 52.197 59.5736 52.1526 59.6575 52.0729C59.7414 51.9932 59.7914 51.8843 59.7972 51.7687H59.7995C59.8044 51.679 59.7826 51.5899 59.7369 51.5126C59.6912 51.4353 59.6235 51.3733 59.5425 51.3345C59.4615 51.2957 59.3709 51.2818 59.282 51.2946C59.1931 51.3074 59.11 51.3464 59.0433 51.4064C58.9766 51.4665 58.9292 51.5451 58.9071 51.6322C58.885 51.7193 58.8893 51.811 58.9194 51.8956C58.9494 51.9803 59.0039 52.0541 59.076 52.1077C59.148 52.1613 59.2343 52.1923 59.324 52.1968H59.3467Z" fill="#61777F"/>
<path d="M60.5828 53.7573C60.5245 53.7165 60.4573 53.69 60.3868 53.68C60.3163 53.67 60.2444 53.6768 60.1771 53.6998C60.1097 53.7228 60.0486 53.7614 59.9989 53.8124C59.9492 53.8634 59.9122 53.9254 59.8909 53.9934C59.8697 54.0613 59.8647 54.1334 59.8765 54.2037C59.8882 54.2739 59.9164 54.3404 59.9586 54.3978C60.0009 54.4551 60.0561 54.5017 60.1197 54.5337C60.1833 54.5657 60.2535 54.5823 60.3247 54.582C60.4211 54.5819 60.5148 54.551 60.5924 54.4939C60.67 54.4367 60.7273 54.3564 60.7561 54.2644C60.7849 54.1724 60.7836 54.0737 60.7524 53.9825C60.7213 53.8913 60.6619 53.8124 60.5828 53.7573Z" fill="#61777F"/>
<path d="M72.3443 54.6794C72.2862 54.6377 72.2191 54.6103 72.1483 54.5995C72.0776 54.5887 72.0054 54.5947 71.9374 54.6172C71.8695 54.6397 71.8079 54.6779 71.7576 54.7288C71.7072 54.7796 71.6696 54.8417 71.6479 54.9099C71.6261 54.978 71.6207 55.0504 71.6323 55.121C71.6438 55.1917 71.6718 55.2586 71.7142 55.3163C71.7565 55.374 71.8118 55.4209 71.8757 55.4531C71.9396 55.4853 72.0102 55.502 72.0817 55.5017C72.1774 55.5011 72.2706 55.4703 72.3477 55.4136C72.4249 55.3569 72.4822 55.2772 72.5113 55.1859C72.5405 55.0947 72.54 54.9965 72.51 54.9056C72.48 54.8146 72.422 54.7354 72.3443 54.6794Z" fill="#61777F"/>
<path d="M72.8945 49.5602C72.813 49.597 72.7443 49.657 72.6969 49.7329C72.6496 49.8087 72.6258 49.8969 72.6285 49.9863C72.6312 50.0757 72.6604 50.1622 72.7123 50.235C72.7642 50.3078 72.8365 50.3636 72.9201 50.3952C73.0037 50.4269 73.0948 50.4331 73.1819 50.4129C73.2689 50.3928 73.3481 50.3473 73.4093 50.2822C73.4706 50.2171 73.5111 50.1352 73.5259 50.047C73.5406 49.9589 73.5289 49.8683 73.4922 49.7867C73.4681 49.7324 73.4335 49.6833 73.3903 49.6424C73.3471 49.6015 73.2963 49.5696 73.2407 49.5485C73.1851 49.5275 73.1258 49.5177 73.0664 49.5197C73.007 49.5217 72.9486 49.5355 72.8945 49.5602Z" fill="#61777F"/>
<path d="M72.976 53.4832C72.867 53.4325 72.7423 53.4271 72.6293 53.4683C72.5163 53.5096 72.4244 53.594 72.3736 53.7031C72.3229 53.8121 72.3175 53.9369 72.3588 54.0499C72.4 54.1629 72.4843 54.2549 72.5934 54.3057C72.6541 54.3321 72.7196 54.3459 72.7858 54.3465C72.8889 54.3465 72.9889 54.3113 73.0692 54.2467C73.1495 54.1821 73.2054 54.092 73.2276 53.9913C73.2498 53.8906 73.237 53.7853 73.1912 53.6929C73.1454 53.6005 73.0695 53.5266 72.976 53.4832Z" fill="#61777F"/>
<path d="M71.5226 55.7554C71.4734 55.7219 71.4181 55.6985 71.3598 55.6864C71.3015 55.6743 71.2415 55.6738 71.183 55.685C71.1246 55.6961 71.0689 55.7187 71.0192 55.7514C70.9694 55.784 70.9266 55.8262 70.8932 55.8754C70.8597 55.9247 70.8363 55.98 70.8242 56.0383C70.8122 56.0966 70.8117 56.1567 70.8228 56.2152C70.834 56.2736 70.8565 56.3293 70.8892 56.3791C70.9218 56.4288 70.964 56.4717 71.0132 56.5051C71.0891 56.5554 71.178 56.5822 71.269 56.5822C71.3657 56.5821 71.4599 56.5511 71.5377 56.4935C71.6155 56.436 71.6728 56.355 71.7011 56.2625C71.7295 56.17 71.7275 56.0708 71.6953 55.9795C71.6632 55.8882 71.6027 55.8097 71.5226 55.7554Z" fill="#61777F"/>
<path d="M70.8207 56.9151C70.7624 56.9032 70.7024 56.9029 70.644 56.9142C70.5856 56.9256 70.53 56.9483 70.4804 56.9811C70.4308 57.0139 70.3881 57.0562 70.3548 57.1055C70.3215 57.1548 70.2983 57.2102 70.2864 57.2685C70.2745 57.3268 70.2742 57.3869 70.2855 57.4453C70.2968 57.5037 70.3195 57.5593 70.3523 57.609C70.3851 57.6586 70.4273 57.7013 70.4766 57.7346C70.5259 57.7679 70.5813 57.7912 70.6396 57.8031C70.6693 57.8095 70.6997 57.8125 70.7301 57.8121C70.8424 57.8122 70.9507 57.7706 71.0341 57.6953C71.1174 57.62 71.1698 57.5164 71.1811 57.4046C71.1924 57.2928 71.1617 57.1809 71.0951 57.0904C71.0285 57 70.9307 56.9375 70.8207 56.9151Z" fill="#61777F"/>
<path d="M76.5305 48.2872C76.4246 48.3156 76.3327 48.3815 76.2719 48.4727C76.211 48.5639 76.1854 48.6742 76.1998 48.7829C76.2143 48.8916 76.2677 48.9913 76.3502 49.0635C76.4327 49.1356 76.5386 49.1753 76.6482 49.1751C76.6887 49.1754 76.7291 49.1701 76.7682 49.1593C76.8254 49.1437 76.879 49.1169 76.9259 49.0806C76.9728 49.0442 77.0121 48.999 77.0416 48.9475C77.071 48.8959 77.09 48.8391 77.0975 48.7802C77.105 48.7214 77.1008 48.6616 77.0852 48.6043C77.0696 48.5471 77.0428 48.4934 77.0065 48.4465C76.9702 48.3996 76.925 48.3603 76.8735 48.3308C76.822 48.3014 76.7652 48.2824 76.7063 48.2749C76.6475 48.2674 76.5877 48.2716 76.5305 48.2872Z" fill="#61777F"/>
<path d="M74.1171 48.781C74.1489 48.7891 74.1816 48.7928 74.2144 48.7921C74.3308 48.7928 74.443 48.7487 74.5279 48.6691C74.6128 48.5895 74.664 48.4804 74.671 48.3641C74.6779 48.2479 74.64 48.1334 74.5651 48.0443C74.4902 47.9551 74.3841 47.8981 74.2684 47.8849C74.1528 47.8717 74.0365 47.9034 73.9435 47.9734C73.8505 48.0434 73.7878 48.1464 73.7684 48.2612C73.7491 48.376 73.7744 48.4939 73.8392 48.5906C73.9041 48.6873 74.0035 48.7554 74.1171 48.781Z" fill="#61777F"/>
<path d="M75.0974 49.3969C75.1971 49.4639 75.3192 49.4885 75.437 49.4654C75.5548 49.4422 75.6586 49.3732 75.7256 49.2735C75.7925 49.1739 75.8171 49.0516 75.794 48.9338C75.7709 48.8159 75.7019 48.7121 75.6023 48.6451C75.553 48.6119 75.4976 48.5888 75.4393 48.577C75.381 48.5653 75.321 48.5651 75.2627 48.5766C75.2044 48.588 75.1489 48.6109 75.0993 48.6438C75.0498 48.6767 75.0073 48.7191 74.9741 48.7684C74.941 48.8178 74.9179 48.8732 74.9061 48.9315C74.8944 48.9898 74.8942 49.0498 74.9057 49.1082C74.9171 49.1666 74.94 49.2221 74.9729 49.2716C75.0058 49.3212 75.0481 49.3637 75.0974 49.3969Z" fill="#61777F"/>
<path d="M70.6259 58.2538C70.5668 58.2477 70.507 58.2533 70.45 58.2704C70.393 58.2874 70.34 58.3154 70.2938 58.353C70.2477 58.3905 70.2094 58.4368 70.1811 58.4891C70.1529 58.5415 70.1352 58.5989 70.1291 58.658C70.123 58.7172 70.1286 58.777 70.1456 58.834C70.1626 58.891 70.1907 58.9441 70.2282 58.9903C70.2657 59.0365 70.312 59.0748 70.3643 59.103C70.4166 59.1313 70.474 59.149 70.5331 59.1551C70.549 59.1551 70.5648 59.1576 70.5807 59.1576C70.6968 59.1576 70.8086 59.113 70.8927 59.0329C70.9769 58.9528 71.0271 58.8434 71.0329 58.7273C71.0388 58.6112 70.9998 58.4973 70.924 58.4092C70.8482 58.321 70.7415 58.2654 70.6259 58.2538Z" fill="#61777F"/>
<path d="M66.5191 61.0058C66.4825 60.9339 66.4274 60.8731 66.3595 60.8297C66.2916 60.7862 66.2133 60.7616 66.1328 60.7585C66.0523 60.7554 65.9723 60.7738 65.9013 60.8119C65.8302 60.85 65.7706 60.9063 65.7286 60.9751C65.6865 61.0439 65.6636 61.1227 65.6621 61.2033C65.6606 61.2839 65.6806 61.3635 65.7201 61.4338C65.7596 61.5041 65.8171 61.5626 65.8867 61.6033C65.9563 61.6439 66.0355 61.6653 66.1161 61.6651C66.187 61.6651 66.2569 61.648 66.3198 61.6153C66.373 61.5885 66.4204 61.5514 66.4592 61.5062C66.4981 61.461 66.5276 61.4086 66.5461 61.352C66.5646 61.2953 66.5717 61.2356 66.5671 61.1762C66.5625 61.1168 66.5462 61.0588 66.5191 61.0058Z" fill="#61777F"/>
<path d="M65.772 60.3763C65.8605 60.3626 65.943 60.3228 66.009 60.2622C66.0749 60.2015 66.1214 60.1226 66.1425 60.0355C66.1636 59.9484 66.1584 59.8569 66.1275 59.7728C66.0967 59.6886 66.0415 59.6155 65.9691 59.5628C65.8966 59.51 65.8102 59.4799 65.7206 59.4764C65.6311 59.4728 65.5425 59.4959 65.4662 59.5428C65.3898 59.5896 65.329 59.6581 65.2915 59.7396C65.2541 59.821 65.2417 59.9117 65.2558 60.0003C65.2724 60.1065 65.3266 60.2033 65.4084 60.2731C65.4902 60.3429 65.5943 60.3811 65.7018 60.3808C65.7253 60.3815 65.7488 60.38 65.772 60.3763Z" fill="#61777F"/>
<path d="M67.1507 61.751C67.0655 61.7235 66.9741 61.7219 66.888 61.7465C66.8019 61.771 66.725 61.8205 66.6671 61.8888C66.6092 61.9571 66.5728 62.041 66.5625 62.1299C66.5523 62.2189 66.5687 62.3089 66.6096 62.3885C66.6505 62.4682 66.7141 62.5339 66.7923 62.5774C66.8705 62.6209 66.9599 62.6401 67.0491 62.6328C67.1383 62.6254 67.2233 62.5917 67.2934 62.536C67.3635 62.4803 67.4154 62.405 67.4427 62.3197C67.4611 62.2632 67.4681 62.2036 67.4634 62.1444C67.4586 62.0851 67.4422 62.0274 67.415 61.9745C67.3879 61.9217 67.3506 61.8747 67.3052 61.8363C67.2598 61.798 67.2073 61.7689 67.1507 61.751Z" fill="#61777F"/>
<path d="M65.4052 57.7102C65.5057 57.6628 65.5852 57.58 65.6284 57.4775C65.6717 57.3751 65.6756 57.2603 65.6394 57.1552C65.6033 57.0501 65.5296 56.962 65.4325 56.9079C65.3355 56.8538 65.2218 56.8374 65.1135 56.8619C65.0051 56.8864 64.9096 56.9501 64.8452 57.0408C64.7809 57.1314 64.7523 57.2427 64.7649 57.3531C64.7775 57.4636 64.8304 57.5655 64.9134 57.6393C64.9965 57.7132 65.1039 57.7537 65.215 57.7532C65.2808 57.7533 65.3458 57.7386 65.4052 57.7102Z" fill="#61777F"/>
<path d="M65.6134 59.0328C65.627 59.0328 65.6383 59.0305 65.6519 59.0308C65.7678 59.0196 65.8747 58.9634 65.9497 58.8743C66.0248 58.7852 66.0619 58.6703 66.0532 58.5541C66.0446 58.4379 65.9908 58.3298 65.9034 58.2528C65.8159 58.1758 65.7019 58.1362 65.5856 58.1423C65.4693 58.1485 65.3601 58.2 65.2813 58.2858C65.2025 58.3715 65.1604 58.4848 65.164 58.6012C65.1677 58.7176 65.2168 58.828 65.3008 58.9087C65.3848 58.9894 65.497 59.0339 65.6134 59.0328Z" fill="#61777F"/>
<path d="M70.4494 59.6061C70.3479 59.5418 70.2251 59.5205 70.1079 59.5468C69.9907 59.5732 69.8888 59.645 69.8245 59.7465C69.7603 59.8481 69.739 59.971 69.7653 60.0882C69.7916 60.2055 69.8634 60.3074 69.9649 60.3717C70.0375 60.4172 70.1214 60.4415 70.2071 60.4419C70.3052 60.442 70.4007 60.4101 70.4792 60.3512C70.5576 60.2922 70.6148 60.2094 70.6421 60.1151C70.6695 60.0208 70.6654 59.9202 70.6307 59.8284C70.5959 59.7366 70.5323 59.6586 70.4494 59.6061Z" fill="#61777F"/>
<path d="M68.0224 61.4907C67.9487 61.5416 67.8918 61.6131 67.8587 61.6964C67.8257 61.7796 67.8181 61.8708 67.8368 61.9584C67.8556 62.0459 67.8999 62.126 67.9641 62.1884C68.0284 62.2508 68.1096 62.2927 68.1977 62.3088C68.2857 62.325 68.3766 62.3147 68.4588 62.2792C68.541 62.2437 68.6108 62.1846 68.6594 62.1093C68.708 62.0341 68.7332 61.9462 68.7319 61.8566C68.7305 61.7671 68.7027 61.6799 68.6518 61.6062C68.6181 61.5572 68.5751 61.5153 68.5252 61.483C68.4753 61.4506 68.4196 61.4285 68.3611 61.4177C68.3026 61.407 68.2426 61.4079 68.1845 61.4204C68.1264 61.433 68.0713 61.4568 68.0224 61.4907Z" fill="#61777F"/>
<path d="M69.0253 60.6866C68.9597 60.7477 68.9138 60.827 68.8932 60.9143C68.8726 61.0015 68.8784 61.093 68.9098 61.177C68.9411 61.261 68.9967 61.3338 69.0694 61.3863C69.1421 61.4387 69.2288 61.4683 69.3184 61.4715C69.4079 61.4747 69.4964 61.4512 69.5727 61.404C69.6489 61.3569 69.7095 61.2882 69.7467 61.2066C69.7839 61.125 69.7961 61.0342 69.7818 60.9457C69.7674 60.8571 69.7271 60.7749 69.666 60.7092C69.5837 60.6219 69.4703 60.5705 69.3503 60.5662C69.2304 60.562 69.1136 60.6052 69.0253 60.6866Z" fill="#61777F"/>
<path d="M68.1695 56.5618C68.1848 56.5634 68.2002 56.5642 68.2157 56.564C68.3183 56.564 68.418 56.5291 68.4982 56.465C68.5784 56.4008 68.6345 56.3113 68.6571 56.2111C68.7794 55.7312 68.9277 55.2582 69.1011 54.7943C69.6016 53.5987 70.2023 52.4477 70.8969 51.3535C71.4788 50.3773 72.2223 48.911 71.9651 47.4523C71.7975 46.575 71.3294 45.7836 70.6414 45.2144C69.9534 44.6452 69.0885 44.3339 68.1957 44.3341H68.1871C68.174 44.333 68.1606 44.3323 68.1473 44.3323C67.254 44.3327 66.3887 44.6444 65.7001 45.2137C65.0115 45.7831 64.5426 46.5746 64.3739 47.4523C64.1164 48.9108 64.8599 50.3773 65.442 51.3535C66.1366 52.4477 66.7374 53.5987 67.2378 54.7943C67.4113 55.2582 67.5595 55.7312 67.6818 56.2111C67.7045 56.3113 67.7606 56.4008 67.8408 56.465C67.921 56.5291 68.0206 56.564 68.1233 56.564C68.1385 56.5634 68.1543 56.5634 68.1695 56.5618ZM66.2197 50.8894C65.7121 50.0377 65.0608 48.771 65.2659 47.6099C65.3939 46.9484 65.746 46.3513 66.2629 45.9193C66.7797 45.4873 67.4297 45.2469 68.1031 45.2386C68.1194 45.2401 68.1355 45.2401 68.1527 45.2406C68.8397 45.2311 69.5082 45.463 70.0419 45.896C70.5755 46.329 70.9404 46.9355 71.0731 47.6099C71.2782 48.771 70.6268 50.0377 70.1192 50.8894C69.3972 52.0273 68.7738 53.2249 68.2557 54.469C68.2274 54.5424 68.1985 54.6215 68.1695 54.7035C68.1405 54.6215 68.1113 54.5424 68.0832 54.4688C67.5651 53.2247 66.9417 52.0272 66.2197 50.8894Z" fill="#61777F"/>
<path d="M69.9807 48.183C69.9807 47.8246 69.8745 47.4742 69.6754 47.1762C69.4764 46.8782 69.1936 46.646 68.8626 46.5088C68.5317 46.3717 68.1675 46.3358 67.8161 46.4057C67.4648 46.4756 67.1421 46.6482 66.8888 46.9016C66.6355 47.1551 66.463 47.478 66.3931 47.8295C66.3232 48.181 66.3591 48.5453 66.4961 48.8765C66.6332 49.2076 66.8654 49.4906 67.1632 49.6897C67.4611 49.8888 67.8113 49.9951 68.1695 49.9951C68.6497 49.9946 69.1101 49.8035 69.4496 49.4638C69.7892 49.124 69.9802 48.6634 69.9807 48.183ZM67.2639 48.183C67.2639 48.0038 67.317 47.8286 67.4165 47.6796C67.516 47.5306 67.6574 47.4145 67.8229 47.3459C67.9884 47.2773 68.1705 47.2594 68.3462 47.2943C68.5218 47.3293 68.6832 47.4156 68.8098 47.5423C68.9365 47.669 69.0227 47.8305 69.0577 48.0062C69.0926 48.182 69.0747 48.3642 69.0062 48.5297C68.9376 48.6953 68.8215 48.8368 68.6726 48.9364C68.5237 49.0359 68.3486 49.0891 68.1695 49.0891C67.9294 49.0888 67.6992 48.9933 67.5294 48.8234C67.3596 48.6535 67.2641 48.4232 67.2639 48.183Z" fill="#61777F"/>
</g>
</g>
</g>
</g>
</g>
</g>
</g>
</g>
<defs>
<clipPath id="clip0_314_16">
<rect width="130" height="130" fill="white"/>
</clipPath>
<clipPath id="clip1_314_16">
<rect width="129.879" height="129.944" fill="white" transform="translate(0.0605469 0.0280457)"/>
</clipPath>
<clipPath id="clip2_314_16">
<rect width="129.879" height="129.944" fill="white" transform="translate(0.0605469 0.0280457)"/>
</clipPath>
<clipPath id="clip3_314_16">
<rect width="80.7485" height="54.9262" fill="white" transform="translate(24.6256 37.5368)"/>
</clipPath>
<clipPath id="clip4_314_16">
<rect width="80.7485" height="54.9262" fill="white" transform="translate(24.6256 37.5368)"/>
</clipPath>
<clipPath id="clip5_314_16">
<rect width="80.7485" height="54.9262" fill="white" transform="translate(24.6256 37.5368)"/>
</clipPath>
<clipPath id="clip6_314_16">
<rect width="80.7485" height="20.9796" fill="white" transform="translate(24.6256 71.4834)"/>
</clipPath>
<clipPath id="clip7_314_16">
<rect width="80.7485" height="20.9796" fill="white" transform="translate(24.6256 71.4834)"/>
</clipPath>
<clipPath id="clip8_314_16">
<rect width="80.7485" height="20.9796" fill="white" transform="translate(24.6256 71.4834)"/>
</clipPath>
<clipPath id="clip9_314_16">
<rect width="80.7485" height="20.9796" fill="white" transform="translate(24.6256 71.4834)"/>
</clipPath>
<clipPath id="clip10_314_16">
<rect width="28.9793" height="28.9938" fill="white" transform="translate(50.5103 37.5368)"/>
</clipPath>
<clipPath id="clip11_314_16">
<rect width="28.9793" height="28.9938" fill="white" transform="translate(50.5103 37.5368)"/>
</clipPath>
</defs>
</svg>
